{"title":"Demi Lovato - Give Your Heart A Break [Music Video] 1080p [Sbyky","uid":8721668,"size":108062845,"categoryP":"video","categoryS":"music_videos","magnet":"?xt=urn:btih:ffa533686a07395d249ea30f6a489c06f0030ef2&amp;dn=Demi+Lovato+-+Give+Your+Heart+A+Break+%5BMusic+Video%5D+1080p+%5BSbyky&amp;tr=udp%3A%2F%2Ftracker.openbittorrent.com%3A80&amp;tr=udp%3A%2F%2Fopen.demonii.com%3A1337&amp;tr=udp%3A%2F%2Ftracker.coppersurfer.tk%3A6969&amp;tr=udp%3A%2F%2Fexodus.desync.com%3A6969","seeders":1,"leechers":0,"uploader":"Sbyky","files":-1,"time":1374432562,"description":"[IMG]http://yuq.me/users/18/139/2rWaxHgENm.png[/IMG]\n\nGeneral\nComplete name                            : Demi Lovato - Give Your Heart A Break [Music Video] 1080p [Sbyky].mp4\nFormat                                   : MPEG-4\nFormat profile                           : Base Media / Version 2\nCodec ID                                 : mp42\nFile size                                : 103 MiB\nDuration                                 : 3mn 35s\nOverall bit rate mode                    : Variable\nOverall bit rate                         : 4 009 Kbps\nEncoded date                             : UTC 2013-04-08 03:05:10\nTagged date                              : UTC 2013-04-08 03:05:10\n\nVideo\nID                                       : 1\nFormat                                   : AVC\nFormat/Info                              : Advanced Video Codec\nFormat profile                           : &lt;a class=&quot;__cf_email__&quot; href=&quot;/cdn-cgi/l/email-protection&quot; data-cfemail=&quot;054d6c626d4549312b35&quot;&gt;[email&amp;#160;protected]&lt;/a&gt;&lt;script cf-hash='f9e31' type=&quot;text/javascript&quot;&gt;\n/* &lt;![CDATA[ */!function(){try{var t=&quot;currentScript&quot;in document?document.currentScript:function(){for(var t=document.getElementsByTagName(&quot;script&quot;),e=t.length;e--;)if(t[e].getAttribute(&quot;cf-hash&quot;))return t[e]}();if(t&amp;&amp;t.previousSibling){var e,r,n,i,c=t.previousSibling,a=c.getAttribute(&quot;data-cfemail&quot;);if(a){for(e=&quot;&quot;,r=parseInt(a.substr(0,2),16),n=2;a.length-n;n+=2)i=parseInt(a.substr(n,2),16)^r,e+=String.fromCharCode(i);e=document.createTextNode(e),c.parentNode.replaceChild(e,c)}}}catch(u){}}();/* ]]&gt; */&lt;/script&gt;\nFormat settings, CABAC                   : Yes\nFormat settings, ReFrames                : 1 frame\nCodec ID                                 : avc1\nCodec ID/Info                            : Advanced Video Coding\nDuration                                 : 3mn 35s\nBit rate                                 : 3 815 Kbps\nMaximum bit rate                         : 8 730 Kbps\nWidth                                    : 1 920 pixels\nHeight                                   : 1 080 pixels\nDisplay aspect ratio                     : 16:9\nFrame rate mode                          : Constant\nFrame rate                               : 23.976 fps\nColor space                              : YUV\nChroma subsampling                       : 4:2:0\nBit depth                                : 8 bits\nScan type                                : Progressive\nBits/(Pixel*Frame)                       : 0.077\nStream size                              : 98.1 MiB (95%)\nTagged date                              : UTC 2013-04-08 03:05:12\n\nAudio\nID                                       : 2\nFormat                                   : AAC\nFormat/Info                              : Advanced Audio Codec\nFormat profile                           : LC\nCodec ID                                 : 40\nDuration                                 : 3mn 35s\nBit rate mode                            : Variable\nBit rate                                 : 192 Kbps\nMaximum bit rate                         : 204 Kbps\nChannel(s)                               : 2 channels\nChannel positions                        : Front: L R\nSampling rate                            : 44.1 KHz\nCompression mode                         : Lossy\nStream size                              : 4.94 MiB (5%)\nTitle                                    : IsoMedia File Produced by Google, 5-11-2011\nEncoded date                             : UTC 2013-04-08 03:05:12\nTagged date                              : UTC 2013-04-08 03:05:12\n\nShared By Sbyky\n[IMG]http://yuq.me/users/18/139/0aq32UMZvX.gif[/IMG]\n[IMG]http://yuq.me/users/18/139/bQg62viaEG.gif[/IMG]","torrent":{"xt":"urn:btih:ffa533686a07395d249ea30f6a489c06f0030ef2","amp;dn":"Demi+Lovato+-+Give+Your+Heart+A+Break+%5BMusic+Video%5D+1080p+%5BSbyky","amp;tr":["udp%3A%2F%2Ftracker.openbittorrent.com%3A80","udp%3A%2F%2Fopen.demonii.com%3A1337","udp%3A%2F%2Ftracker.coppersurfer.tk%3A6969","udp%3A%2F%2Fexodus.desync.com%3A6969"],"infoHash":"ffa533686a07395d249ea30f6a489c06f0030ef2","infoHashBuffer":{"type":"Buffer","data":[255,165,51,104,106,7,57,93,36,158,163,15,106,72,156,6,240,3,14,242]},"announce":[],"urlList":[]}}